# This file uses centimeters as units for non-parametric coordinates.

g default
v 2.722595 0.000000 -0.652832
v 2.722595 0.000000 -0.752838
v 2.722595 2.000000 -0.652832
v 2.722595 2.000000 -0.752838
v 2.722595 2.153360 -0.628052
v 2.722595 2.179242 -0.724640
v 2.722595 2.305913 -0.541565
v 2.722595 2.355913 -0.628174
v 2.722595 2.424560 -0.415619
v 2.722595 2.511163 -0.465637
v 2.722595 2.508883 -0.229462
v 2.722595 2.605475 -0.255341
v 2.722595 2.516457 -0.107666
v 2.722595 2.616457 -0.107666
v 2.722595 2.516458 0.720642
v 2.722595 2.616458 0.720642
v -0.777405 2.516458 0.720642
v -0.777405 2.616458 0.720642
v -0.777405 2.516457 -0.107666
v -0.777405 2.616457 -0.107666
v -0.777405 2.508883 -0.229462
v -0.777405 2.605475 -0.255341
v -0.777405 2.424560 -0.415619
v -0.777405 2.511163 -0.465637
v -0.777405 2.305913 -0.541565
v -0.777405 2.355913 -0.628174
v -0.777405 2.153360 -0.628052
v -0.777405 2.179242 -0.724640
v -0.777405 2.000000 -0.652832
v -0.777405 2.000000 -0.752838
v -0.777405 0.000000 -0.652832
v -0.777405 0.000000 -0.752838
v 0.000000 0.000000 -0.056488
v 0.000000 0.000000 0.000000
v 0.000000 0.500867 -0.056488
v 0.000000 0.500867 0.000000
v 0.000000 0.587520 -0.070496
v 0.000000 0.602144 -0.015930
v 0.000000 0.683980 -0.110809
v 0.000000 0.712231 -0.061890
v 0.000000 0.728782 -0.164124
v 0.000000 0.777715 -0.135864
v 0.000000 0.773006 -0.226563
v 0.000000 0.827583 -0.211914
v 0.000000 0.777286 -0.295380
v 0.000000 0.833788 -0.295380
v 0.000000 0.777286 -0.652832
v 0.000000 0.833789 -0.652832
v 1.977600 0.777286 -0.652832
v 1.977600 0.833789 -0.652832
v 1.977600 0.777286 -0.295380
v 1.977600 0.833788 -0.295380
v 1.977600 0.773006 -0.226563
v 1.977600 0.827583 -0.211914
v 1.977600 0.728782 -0.164124
v 1.977600 0.777715 -0.135864
v 1.977600 0.683980 -0.110809
v 1.977600 0.712231 -0.061890
v 1.977600 0.587520 -0.070496
v 1.977600 0.602144 -0.015930
v 1.977600 0.500867 -0.056488
v 1.977600 0.500867 0.000000
v 1.977600 0.000000 -0.056488
v 1.977600 0.000000 0.000000
vt 0.696370 0.411855
vt 0.709231 0.411855
vt 0.709231 0.669058
vt 0.696370 0.669058
vt 0.705605 0.692109
vt 0.693183 0.688780
vt 0.693199 0.714829
vt 0.682062 0.708399
vt 0.672295 0.734794
vt 0.665865 0.723657
vt 0.645253 0.746923
vt 0.641924 0.734501
vt 0.623621 0.748335
vt 0.623621 0.735475
vt 0.519738 0.748335
vt 0.519738 0.735475
vt 0.519738 0.735475
vt 0.506878 0.735475
vt 0.506878 0.285370
vt 0.519738 0.285370
vt 0.519738 0.285370
vt 0.519738 0.272509
vt 0.623621 0.272510
vt 0.623621 0.285370
vt 0.645253 0.273922
vt 0.641924 0.286344
vt 0.672296 0.286051
vt 0.665866 0.297188
vt 0.693199 0.306016
vt 0.682062 0.312446
vt 0.705605 0.328736
vt 0.693183 0.332065
vt 0.709231 0.351787
vt 0.696370 0.351787
vt 0.709231 0.608990
vt 0.696370 0.608990
vt 0.000000 0.285370
vt 0.012860 0.285370
vt 0.012860 0.735475
vt 0.000000 0.735475
vt 0.270063 0.285370
vt 0.270063 0.735475
vt 0.293114 0.285370
vt 0.293114 0.735475
vt 0.320793 0.285370
vt 0.320793 0.735475
vt 0.352928 0.285370
vt 0.352928 0.735475
vt 0.383346 0.285370
vt 0.383346 0.735475
vt 0.402994 0.285370
vt 0.402994 0.735475
vt 0.985875 0.285370
vt 0.985875 0.735475
vt 0.728672 0.735475
vt 0.728672 0.285370
vt 0.708949 0.735475
vt 0.708949 0.285370
vt 0.686239 0.735475
vt 0.686239 0.285370
vt 0.664033 0.735475
vt 0.664033 0.285370
vt 0.638259 0.735475
vt 0.638259 0.285370
vt 0.623621 0.735475
vt 0.623621 0.285370
vt 0.550079 0.411855
vt 0.562940 0.411855
vt 0.562940 0.669058
vt 0.550079 0.669058
vt 0.559314 0.692109
vt 0.546892 0.688780
vt 0.546908 0.714829
vt 0.535771 0.708399
vt 0.526004 0.734794
vt 0.519574 0.723657
vt 0.498962 0.746923
vt 0.495633 0.734501
vt 0.477330 0.748335
vt 0.477330 0.735475
vt 0.373447 0.748335
vt 0.373447 0.735475
vt 0.373447 0.735475
vt 0.360587 0.735475
vt 0.360587 0.285370
vt 0.373447 0.285370
vt 0.373447 0.285370
vt 0.373447 0.272509
vt 0.477330 0.272510
vt 0.477330 0.285370
vt 0.498962 0.273922
vt 0.495633 0.286344
vt 0.526005 0.286051
vt 0.519575 0.297188
vt 0.546908 0.306016
vt 0.535771 0.312446
vt 0.559314 0.328736
vt 0.546892 0.332065
vt 0.562940 0.351787
vt 0.550079 0.351787
vt 0.562940 0.608990
vt 0.550079 0.608990
vt 0.000000 0.285370
vt 0.012860 0.285370
vt 0.012860 0.735475
vt 0.000000 0.735475
vt 0.123772 0.285370
vt 0.123772 0.735475
vt 0.146823 0.285370
vt 0.146823 0.735475
vt 0.174502 0.285370
vt 0.174502 0.735475
vt 0.206637 0.285370
vt 0.206637 0.735475
vt 0.237055 0.285370
vt 0.237055 0.735475
vt 0.256703 0.285370
vt 0.256703 0.735475
vt 0.839584 0.285370
vt 0.839584 0.735475
vt 0.582381 0.735475
vt 0.582381 0.285370
vt 0.562658 0.735475
vt 0.562658 0.285370
vt 0.539948 0.735475
vt 0.539948 0.285370
vt 0.517742 0.735475
vt 0.517742 0.285370
vt 0.491968 0.735475
vt 0.491968 0.285370
vt 0.477330 0.735475
vt 0.477330 0.285370
vn 1.000000 0.000000 -0.000000
vn 1.000000 0.000000 -0.000000
vn 1.000000 0.000000 -0.000000
vn 1.000000 0.000000 -0.000000
vn 1.000000 0.000000 -0.000000
vn 1.000000 0.000000 -0.000000
vn 1.000000 0.000000 -0.000000
vn 1.000000 0.000000 -0.000000
vn 1.000000 0.000000 -0.000000
vn 1.000000 0.000000 -0.000000
vn 1.000000 0.000000 -0.000000
vn 1.000000 0.000000 -0.000000
vn 1.000000 0.000000 -0.000000
vn 1.000000 0.000000 -0.000000
vn 1.000000 0.000000 -0.000000
vn 1.000000 0.000000 -0.000000
vn 1.000000 0.000000 -0.000000
vn 1.000000 0.000000 -0.000000
vn 1.000000 0.000000 -0.000000
vn 1.000000 0.000000 -0.000000
vn 1.000000 0.000000 -0.000000
vn 1.000000 0.000000 -0.000000
vn 1.000000 0.000000 -0.000000
vn 1.000000 0.000000 -0.000000
vn 1.000000 0.000000 -0.000000
vn 1.000000 0.000000 -0.000000
vn 1.000000 0.000000 -0.000000
vn 1.000000 0.000000 -0.000000
vn 0.000000 0.000001 1.000000
vn 0.000000 0.000001 1.000000
vn 0.000000 0.000001 1.000000
vn 0.000000 0.000001 1.000000
vn -1.000000 0.000000 0.000000
vn -1.000000 0.000000 0.000000
vn -1.000000 0.000000 0.000000
vn -1.000000 0.000000 0.000000
vn -1.000000 0.000000 0.000000
vn -1.000000 0.000000 0.000000
vn -1.000000 0.000000 0.000000
vn -1.000000 0.000000 0.000000
vn -1.000000 0.000000 0.000000
vn -1.000000 0.000000 0.000000
vn -1.000000 0.000000 0.000000
vn -1.000000 0.000000 0.000000
vn -1.000000 0.000000 0.000000
vn -1.000000 0.000000 0.000000
vn -1.000000 0.000000 0.000000
vn -1.000000 0.000000 0.000000
vn -1.000000 0.000000 0.000000
vn -1.000000 0.000000 0.000000
vn -1.000000 0.000000 0.000000
vn -1.000000 0.000000 0.000000
vn -1.000000 0.000000 0.000000
vn -1.000000 0.000000 0.000000
vn -1.000000 0.000000 0.000000
vn -1.000000 0.000000 0.000000
vn -1.000000 0.000000 0.000000
vn -1.000000 0.000000 0.000000
vn -1.000000 0.000000 0.000000
vn -1.000000 0.000000 0.000000
vn 0.000000 -1.000000 0.000000
vn 0.000000 -1.000000 0.000000
vn 0.000000 -1.000000 0.000000
vn 0.000000 -1.000000 0.000000
vn -0.000000 0.000000 -1.000000
vn -0.000000 0.000000 -1.000000
vn -0.000000 0.012935 -0.999916
vn -0.000000 0.012935 -0.999916
vn -0.000000 0.012935 -0.999916
vn -0.000000 0.012935 -0.999916
vn -0.000000 0.330562 -0.943784
vn -0.000000 0.330562 -0.943784
vn -0.000000 0.330562 -0.943784
vn -0.000000 0.330562 -0.943784
vn -0.000000 0.615203 -0.788369
vn -0.000000 0.615203 -0.788369
vn -0.000000 0.615203 -0.788369
vn -0.000000 0.615203 -0.788369
vn -0.000000 0.831012 -0.556255
vn -0.000000 0.831012 -0.556255
vn -0.000000 0.831012 -0.556255
vn -0.000000 0.831012 -0.556255
vn -0.000000 0.959358 -0.282192
vn -0.000000 0.959358 -0.282192
vn -0.000000 0.959358 -0.282192
vn -0.000000 0.959358 -0.282192
vn -0.000000 0.999937 -0.011253
vn -0.000000 0.999937 -0.011253
vn -0.000000 0.999937 -0.011253
vn -0.000000 0.999937 -0.011253
vn -0.000000 1.000000 -0.000002
vn -0.000000 1.000000 -0.000002
vn 0.000000 0.000000 1.000000
vn 0.000000 0.000000 1.000000
vn 0.000000 -0.011509 0.999934
vn 0.000000 -0.011509 0.999934
vn 0.000000 -0.011509 0.999934
vn 0.000000 -0.011509 0.999934
vn 0.000000 -0.341799 0.939773
vn 0.000000 -0.341799 0.939773
vn 0.000000 -0.341799 0.939773
vn 0.000000 -0.341799 0.939773
vn 0.000000 -0.616629 0.787254
vn 0.000000 -0.616629 0.787254
vn 0.000000 -0.616629 0.787254
vn 0.000000 -0.616629 0.787254
vn 0.000000 -0.838322 0.545175
vn 0.000000 -0.838322 0.545175
vn 0.000000 -0.838322 0.545175
vn 0.000000 -0.838322 0.545175
vn 0.000000 -0.958247 0.285941
vn 0.000000 -0.958247 0.285941
vn 0.000000 -0.958247 0.285941
vn 0.000000 -0.958247 0.285941
vn 0.000000 -0.999968 0.007972
vn 0.000000 -0.999968 0.007972
vn 0.000000 -0.999968 0.007972
vn 0.000000 -0.999968 0.007972
vn 0.000000 -1.000000 0.000001
vn 0.000000 -1.000000 0.000001
vn -1.000000 0.000000 0.000000
vn -1.000000 0.000000 0.000000
vn -1.000000 0.000000 0.000000
vn -1.000000 0.000000 0.000000
vn -1.000000 0.000000 0.000000
vn -1.000000 0.000000 0.000000
vn -1.000000 0.000000 0.000000
vn -1.000000 0.000000 0.000000
vn -1.000000 0.000000 0.000000
vn -1.000000 0.000000 0.000000
vn -1.000000 0.000000 0.000000
vn -1.000000 0.000000 0.000000
vn -1.000000 0.000000 0.000000
vn -1.000000 0.000000 0.000000
vn -1.000000 0.000000 0.000000
vn -1.000000 0.000000 0.000000
vn -1.000000 0.000000 0.000000
vn -1.000000 0.000000 0.000000
vn -1.000000 0.000000 0.000000
vn -1.000000 0.000000 0.000000
vn -1.000000 0.000000 0.000000
vn -1.000000 0.000000 0.000000
vn -1.000000 0.000000 0.000000
vn -1.000000 0.000000 0.000000
vn -1.000000 0.000000 0.000000
vn -1.000000 0.000000 0.000000
vn -1.000000 0.000000 0.000000
vn -1.000000 0.000000 0.000000
vn -0.000000 0.000001 -1.000000
vn -0.000000 0.000001 -1.000000
vn -0.000000 0.000001 -1.000000
vn -0.000000 0.000001 -1.000000
vn 1.000000 0.000000 -0.000000
vn 1.000000 0.000000 -0.000000
vn 1.000000 0.000000 -0.000000
vn 1.000000 0.000000 -0.000000
vn 1.000000 0.000000 -0.000000
vn 1.000000 0.000000 -0.000000
vn 1.000000 0.000000 -0.000000
vn 1.000000 0.000000 -0.000000
vn 1.000000 0.000000 -0.000000
vn 1.000000 0.000000 -0.000000
vn 1.000000 0.000000 -0.000000
vn 1.000000 0.000000 -0.000000
vn 1.000000 0.000000 -0.000000
vn 1.000000 0.000000 -0.000000
vn 1.000000 0.000000 -0.000000
vn 1.000000 0.000000 -0.000000
vn 1.000000 0.000000 -0.000000
vn 1.000000 0.000000 -0.000000
vn 1.000000 0.000000 -0.000000
vn 1.000000 0.000000 -0.000000
vn 1.000000 0.000000 -0.000000
vn 1.000000 0.000000 -0.000000
vn 1.000000 0.000000 -0.000000
vn 1.000000 0.000000 -0.000000
vn 1.000000 0.000000 -0.000000
vn 1.000000 0.000000 -0.000000
vn 1.000000 0.000000 -0.000000
vn 1.000000 0.000000 -0.000000
vn 0.000000 -1.000000 0.000000
vn 0.000000 -1.000000 0.000000
vn 0.000000 -1.000000 0.000000
vn 0.000000 -1.000000 0.000000
vn 0.000000 0.000000 1.000000
vn 0.000000 0.000000 1.000000
vn 0.000000 0.026444 0.999650
vn 0.000000 0.026444 0.999650
vn 0.000000 0.026444 0.999650
vn 0.000000 0.026444 0.999650
vn 0.000000 0.280985 0.959712
vn 0.000000 0.280985 0.959712
vn 0.000000 0.280985 0.959712
vn 0.000000 0.280985 0.959712
vn 0.000000 0.564110 0.825700
vn 0.000000 0.564110 0.825700
vn 0.000000 0.564110 0.825700
vn 0.000000 0.564110 0.825700
vn 0.000000 0.792800 0.609482
vn 0.000000 0.792800 0.609482
vn 0.000000 0.792800 0.609482
vn 0.000000 0.792800 0.609482
vn 0.000000 0.943398 0.331664
vn 0.000000 0.943398 0.331664
vn 0.000000 0.943398 0.331664
vn 0.000000 0.943398 0.331664
vn 0.000000 0.999901 0.014074
vn 0.000000 0.999901 0.014074
vn 0.000000 0.999901 0.014074
vn 0.000000 0.999901 0.014074
vn 0.000000 1.000000 0.000002
vn 0.000000 1.000000 0.000002
vn -0.000000 0.000000 -1.000000
vn -0.000000 0.000000 -1.000000
vn -0.000000 -0.023828 -0.999716
vn -0.000000 -0.023828 -0.999716
vn -0.000000 -0.023828 -0.999716
vn -0.000000 -0.023828 -0.999716
vn -0.000000 -0.284366 -0.958716
vn -0.000000 -0.284366 -0.958716
vn -0.000000 -0.284366 -0.958716
vn -0.000000 -0.284366 -0.958716
vn -0.000000 -0.552441 -0.833552
vn -0.000000 -0.552441 -0.833552
vn -0.000000 -0.552441 -0.833552
vn -0.000000 -0.552441 -0.833552
vn -0.000000 -0.792635 -0.609697
vn -0.000000 -0.792635 -0.609697
vn -0.000000 -0.792635 -0.609697
vn -0.000000 -0.792635 -0.609697
vn -0.000000 -0.937995 -0.346648
vn -0.000000 -0.937995 -0.346648
vn -0.000000 -0.937995 -0.346648
vn -0.000000 -0.937995 -0.346648
vn -0.000000 -0.999950 -0.010040
vn -0.000000 -0.999950 -0.010040
vn -0.000000 -0.999950 -0.010040
vn -0.000000 -0.999950 -0.010040
vn -0.000000 -1.000000 -0.000001
vn -0.000000 -1.000000 -0.000001
s off
g polySurface471
f 1/1/1 2/2/2 4/3/3 3/4/4
f 3/4/5 4/3/6 6/5/7 5/6/8
f 5/6/9 6/5/10 8/7/11 7/8/12
f 7/8/13 8/7/14 10/9/15 9/10/16
f 9/10/17 10/9/18 12/11/19 11/12/20
f 11/12/21 12/11/22 14/13/23 13/14/24
f 13/14/25 14/13/26 16/15/27 15/16/28
f 15/17/29 16/18/30 18/19/31 17/20/32
f 17/21/33 18/22/34 20/23/35 19/24/36
f 19/24/37 20/23/38 22/25/39 21/26/40
f 21/26/41 22/25/42 24/27/43 23/28/44
f 23/28/45 24/27/46 26/29/47 25/30/48
f 25/30/49 26/29/50 28/31/51 27/32/52
f 27/32/53 28/31/54 30/33/55 29/34/56
f 29/34/57 30/33/58 32/35/59 31/36/60
f 31/37/61 32/38/62 2/39/63 1/40/64
f 2/39/65 32/38/66 30/41/67 4/42/68
f 4/42/69 30/41/70 28/43/71 6/44/72
f 6/44/73 28/43/74 26/45/75 8/46/76
f 8/46/77 26/45/78 24/47/79 10/48/80
f 10/48/81 24/47/82 22/49/83 12/50/84
f 12/50/85 22/49/86 20/51/87 14/52/88
f 14/52/89 20/51/90 18/19/91 16/18/92
f 31/53/93 1/54/94 3/55/95 29/56/96
f 29/56/97 3/55/98 5/57/99 27/58/100
f 27/58/101 5/57/102 7/59/103 25/60/104
f 25/60/105 7/59/106 9/61/107 23/62/108
f 23/62/109 9/61/110 11/63/111 21/64/112
f 21/64/113 11/63/114 13/65/115 19/66/116
f 19/66/117 13/65/118 15/17/119 17/20/120
f 33/67/121 34/68/122 36/69/123 35/70/124
f 35/70/125 36/69/126 38/71/127 37/72/128
f 37/72/129 38/71/130 40/73/131 39/74/132
f 39/74/133 40/73/134 42/75/135 41/76/136
f 41/76/137 42/75/138 44/77/139 43/78/140
f 43/78/141 44/77/142 46/79/143 45/80/144
f 45/80/145 46/79/146 48/81/147 47/82/148
f 47/83/149 48/84/150 50/85/151 49/86/152
f 49/87/153 50/88/154 52/89/155 51/90/156
f 51/90/157 52/89/158 54/91/159 53/92/160
f 53/92/161 54/91/162 56/93/163 55/94/164
f 55/94/165 56/93/166 58/95/167 57/96/168
f 57/96/169 58/95/170 60/97/171 59/98/172
f 59/98/173 60/97/174 62/99/175 61/100/176
f 61/100/177 62/99/178 64/101/179 63/102/180
f 63/103/181 64/104/182 34/105/183 33/106/184
f 34/105/185 64/104/186 62/107/187 36/108/188
f 36/108/189 62/107/190 60/109/191 38/110/192
f 38/110/193 60/109/194 58/111/195 40/112/196
f 40/112/197 58/111/198 56/113/199 42/114/200
f 42/114/201 56/113/202 54/115/203 44/116/204
f 44/116/205 54/115/206 52/117/207 46/118/208
f 46/118/209 52/117/210 50/85/211 48/84/212
f 63/119/213 33/120/214 35/121/215 61/122/216
f 61/122/217 35/121/218 37/123/219 59/124/220
f 59/124/221 37/123/222 39/125/223 57/126/224
f 57/126/225 39/125/226 41/127/227 55/128/228
f 55/128/229 41/127/230 43/129/231 53/130/232
f 53/130/233 43/129/234 45/131/235 51/132/236
f 51/132/237 45/131/238 47/83/239 49/86/240
