# This file uses centimeters as units for non-parametric coordinates.

g default
v 0.000000 0.000000 0.000000
v 39.999992 0.000000 0.000000
v 0.000000 0.150000 0.000000
v 39.999992 0.150000 0.000000
v 0.000000 0.150000 -3.000000
v 39.999992 0.150000 -3.000000
v 0.000000 0.000000 -3.000000
v 39.999992 0.000000 -3.000000
v 3.000000 0.000000 -3.000000
v 3.000000 0.000000 0.000000
v 3.000000 0.150000 0.000000
v 3.000000 0.150000 -3.000000
v 36.999992 0.000000 -3.000000
v 36.999992 0.000000 0.000000
v 36.999992 0.150000 0.000000
v 36.999992 0.150000 -3.000000
vt 0.184770 0.076693
vt 0.184770 0.001992
vt 0.188505 0.001992
vt 0.188505 0.076693
vt 0.195821 0.076693
vt 0.195821 0.001992
vt 0.199556 0.001992
vt 0.199556 0.076693
vt 0.011634 0.998008
vt 0.011634 0.923307
vt 0.086335 0.923307
vt 0.086335 0.998008
vt 0.011634 0.076693
vt 0.086335 0.076693
vt 0.011634 0.001992
vt 0.086335 0.001992
vt 0.103727 0.998008
vt 0.103727 0.923307
vt 0.178428 0.923307
vt 0.178428 0.998008
vt 0.103727 0.076693
vt 0.178428 0.076693
vt 0.103727 0.001992
vt 0.178428 0.001992
vt 0.000398 0.998008
vt 0.000398 0.923307
vt 0.004133 0.923307
vt 0.004133 0.998008
vt 0.000398 0.076693
vt 0.004133 0.076693
vt 0.000398 0.001992
vt 0.004133 0.001992
vt 0.092676 0.998008
vt 0.092676 0.923307
vt 0.096411 0.923307
vt 0.096411 0.998008
vt 0.092676 0.076693
vt 0.096411 0.076693
vt 0.092676 0.001992
vt 0.096411 0.001992
vn 0.000000 0.000000 1.000000
vn 0.000000 0.000000 1.000000
vn 0.000000 0.000000 1.000000
vn 0.000000 0.000000 1.000000
vn 0.000000 1.000000 0.000000
vn 0.000000 1.000000 0.000000
vn 0.000000 1.000000 0.000000
vn 0.000000 1.000000 0.000000
vn 0.000000 0.000000 -1.000000
vn 0.000000 0.000000 -1.000000
vn 0.000000 0.000000 -1.000000
vn 0.000000 0.000000 -1.000000
vn 0.000000 -1.000000 0.000000
vn 0.000000 -1.000000 0.000000
vn 0.000000 -1.000000 0.000000
vn 0.000000 -1.000000 0.000000
vn 1.000000 0.000000 0.000000
vn 1.000000 0.000000 0.000000
vn 1.000000 0.000000 0.000000
vn 1.000000 0.000000 0.000000
vn -1.000000 0.000000 0.000000
vn -1.000000 0.000000 0.000000
vn -1.000000 0.000000 0.000000
vn -1.000000 0.000000 0.000000
vn 0.000000 -1.000000 0.000000
vn 0.000000 -1.000000 0.000000
vn 0.000000 0.000000 1.000000
vn 0.000000 0.000000 1.000000
vn 0.000000 1.000000 0.000000
vn 0.000000 1.000000 0.000000
vn 0.000000 0.000000 -1.000000
vn 0.000000 0.000000 -1.000000
vn 0.000000 -1.000000 0.000000
vn 0.000000 -1.000000 0.000000
vn 0.000000 0.000000 1.000000
vn 0.000000 0.000000 1.000000
vn 0.000000 1.000000 0.000000
vn 0.000000 1.000000 0.000000
vn 0.000000 0.000000 -1.000000
vn 0.000000 0.000000 -1.000000
s 1
g polySurface393 polySurface13
f 1/25/1 10/26/2 11/27/3 3/28/4
s 2
f 3/9/5 11/10/6 12/11/7 5/12/8
s 3
f 5/33/9 12/34/10 9/35/11 7/36/12
s 4
f 7/17/13 9/18/14 10/19/15 1/20/16
s off
f 2/1/17 8/2/18 6/3/19 4/4/20
f 7/5/21 1/6/22 3/7/23 5/8/24
s 4
f 9/18/14 13/21/25 14/22/26 10/19/15
s 1
f 11/27/3 10/26/2 14/29/27 15/30/28
s 2
f 12/11/7 11/10/6 15/13/29 16/14/30
s 3
f 9/35/11 12/34/10 16/37/31 13/38/32
s 4
f 13/21/25 8/23/33 2/24/34 14/22/26
s 1
f 15/30/28 14/29/27 2/31/35 4/32/36
s 2
f 16/14/30 15/13/29 4/15/37 6/16/38
s 3
f 13/38/32 16/37/31 6/39/39 8/40/40
