# This file uses centimeters as units for non-parametric coordinates.

g default
v -0.000005 -0.000000 0.000001
v 33.999995 -0.000000 0.000001
v -0.000005 74.881482 0.000001
v 33.999995 74.881482 0.000001
v -0.000005 74.881482 -33.999999
v 33.999995 74.881482 -33.999999
v -0.000005 -0.000000 -33.999999
v 33.999995 -0.000000 -33.999999
vt 0.543862 0.001992
vt 0.808874 0.001992
vt 0.808874 0.498100
vt 0.543862 0.498100
vt 0.814333 0.001992
vt 1.079342 0.001992
vt 1.079342 0.498100
vt 0.814333 0.498100
vt 0.414246 0.501901
vt 0.679256 0.501901
vt 0.679256 0.766913
vt 0.414246 0.766913
vt 0.143396 0.501901
vt 0.408406 0.501901
vt 0.408406 0.766911
vt 0.143396 0.766911
vt 0.001896 0.001992
vt 0.266906 0.001992
vt 0.266906 0.498100
vt 0.001896 0.498100
vt 0.537981 0.498100
vt 0.272972 0.498100
vt 0.272972 0.001994
vt 0.537981 0.001994
vn 0.000000 0.000000 1.000000
vn 0.000000 0.000000 1.000000
vn 0.000000 0.000000 1.000000
vn 0.000000 0.000000 1.000000
vn 0.000000 1.000000 0.000000
vn 0.000000 1.000000 0.000000
vn 0.000000 1.000000 0.000000
vn 0.000000 1.000000 0.000000
vn 0.000000 0.000000 -1.000000
vn 0.000000 0.000000 -1.000000
vn 0.000000 0.000000 -1.000000
vn 0.000000 0.000000 -1.000000
vn 0.000000 -1.000000 0.000000
vn 0.000000 -1.000000 0.000000
vn 0.000000 -1.000000 0.000000
vn 0.000000 -1.000000 0.000000
vn 1.000000 0.000000 0.000000
vn 1.000000 0.000000 0.000000
vn 1.000000 0.000000 0.000000
vn 1.000000 0.000000 0.000000
vn -1.000000 0.000000 0.000000
vn -1.000000 0.000000 0.000000
vn -1.000000 0.000000 0.000000
vn -1.000000 0.000000 0.000000
s off
g pCube30
f 1/17/1 2/18/2 4/19/3 3/20/4
f 3/9/5 4/10/6 6/11/7 5/12/8
f 5/21/9 6/22/10 8/23/11 7/24/12
f 7/13/13 8/14/14 2/15/15 1/16/16
f 2/1/17 8/2/18 6/3/19 4/4/20
f 7/5/21 1/6/22 3/7/23 5/8/24
