# This file uses centimeters as units for non-parametric coordinates.

g default
v 33.999998 -0.000000 -171.000001
v -0.000002 -0.000000 -171.000001
v 33.999998 50.104666 -171.000001
v -0.000002 50.104666 -171.000001
v 33.999998 50.104666 -1.000001
v -0.000002 50.104666 -1.000001
v 33.999998 -0.000000 -1.000001
v -0.000002 -0.000000 -1.000001
vt 0.793626 0.198822
vt 0.000000 0.198822
vt 0.000000 0.000000
vt 0.793626 0.000000
vt 0.793629 0.198822
vt 0.000000 0.198822
vt 0.000000 0.000000
vt 0.793629 0.000000
vt 0.000000 0.516275
vt 0.000000 0.357549
vt 0.793626 0.357549
vt 0.793626 0.516275
vt 0.000000 0.357549
vt 0.000000 0.198822
vt 0.793629 0.198822
vt 0.793629 0.357549
vt 0.793629 0.198822
vt 0.634902 0.198822
vt 0.634902 -0.000000
vt 0.793629 -0.000000
vt 0.158726 0.198822
vt 0.000000 0.198822
vt 0.000000 0.000000
vt 0.158726 0.000000
vn 0.000000 0.000000 -1.000000
vn 0.000000 0.000000 -1.000000
vn 0.000000 0.000000 -1.000000
vn 0.000000 0.000000 -1.000000
vn 0.000000 1.000000 -0.000000
vn 0.000000 1.000000 -0.000000
vn 0.000000 1.000000 -0.000000
vn 0.000000 1.000000 -0.000000
vn -0.000000 0.000000 1.000000
vn -0.000000 0.000000 1.000000
vn -0.000000 0.000000 1.000000
vn -0.000000 0.000000 1.000000
vn 0.000000 -1.000000 0.000000
vn 0.000000 -1.000000 0.000000
vn 0.000000 -1.000000 0.000000
vn 0.000000 -1.000000 0.000000
vn -1.000000 0.000000 -0.000000
vn -1.000000 0.000000 -0.000000
vn -1.000000 0.000000 -0.000000
vn -1.000000 0.000000 -0.000000
vn 1.000000 0.000000 0.000000
vn 1.000000 0.000000 0.000000
vn 1.000000 0.000000 0.000000
vn 1.000000 0.000000 0.000000
s off
g pCube39
f 1/17/1 2/18/2 4/19/3 3/20/4
f 3/9/5 4/10/6 6/11/7 5/12/8
f 5/21/9 6/22/10 8/23/11 7/24/12
f 7/13/13 8/14/14 2/15/15 1/16/16
f 2/1/17 8/2/18 6/3/19 4/4/20
f 7/5/21 1/6/22 3/7/23 5/8/24
