# This file uses centimeters as units for non-parametric coordinates.

g default
v 239.999998 -0.000000 -32.999994
v -0.000020 -0.000000 -32.999994
v 239.999998 50.104666 -32.999994
v -0.000020 50.104666 -32.999994
v 239.999998 50.104666 0.000001
v -0.000020 50.104666 0.000001
v 239.999998 -0.000000 0.000001
v -0.000020 -0.000000 0.000001
vt 0.000000 -0.000000
vt 0.136954 -0.000000
vt 0.136954 0.176746
vt 0.000000 0.176746
vt 0.859061 0.000000
vt 0.996013 0.000000
vt 0.996013 0.176746
vt 0.859061 0.176746
vt 0.998282 0.313700
vt 0.002271 0.313700
vt 0.002271 0.176746
vt 0.998282 0.176746
vt 0.996012 0.313698
vt -0.000002 0.313698
vt -0.000002 0.176746
vt 0.996012 0.176746
vt 0.000000 0.000000
vt 0.996013 0.000000
vt 0.996013 0.176746
vt 0.000000 0.176746
vt -0.000002 0.000000
vt 0.996013 0.000000
vt 0.996013 0.176746
vt -0.000002 0.176746
vn 0.000000 0.000000 -1.000000
vn 0.000000 0.000000 -1.000000
vn 0.000000 0.000000 -1.000000
vn 0.000000 0.000000 -1.000000
vn 0.000000 1.000000 -0.000000
vn 0.000000 1.000000 -0.000000
vn 0.000000 1.000000 -0.000000
vn 0.000000 1.000000 -0.000000
vn -0.000000 0.000000 1.000000
vn -0.000000 0.000000 1.000000
vn -0.000000 0.000000 1.000000
vn -0.000000 0.000000 1.000000
vn 0.000000 -1.000000 0.000000
vn 0.000000 -1.000000 0.000000
vn 0.000000 -1.000000 0.000000
vn 0.000000 -1.000000 0.000000
vn -1.000000 0.000000 -0.000000
vn -1.000000 0.000000 -0.000000
vn -1.000000 0.000000 -0.000000
vn -1.000000 0.000000 -0.000000
vn 1.000000 0.000000 0.000000
vn 1.000000 0.000000 0.000000
vn 1.000000 0.000000 0.000000
vn 1.000000 0.000000 0.000000
s off
g pCube45
f 1/17/1 2/18/2 4/19/3 3/20/4
f 3/9/5 4/10/6 6/11/7 5/12/8
f 5/21/9 6/22/10 8/23/11 7/24/12
f 7/13/13 8/14/14 2/15/15 1/16/16
f 2/1/17 8/2/18 6/3/19 4/4/20
f 7/5/21 1/6/22 3/7/23 5/8/24
