# This file uses centimeters as units for non-parametric coordinates.

g default
v 0.000000 0.000000 0.000000
v 10.000008 0.000000 0.000000
v 0.000000 0.150000 0.000000
v 10.000008 0.150000 0.000000
v 0.000000 0.150000 -3.000000
v 10.000008 0.150000 -3.000000
v 0.000000 0.000000 -3.000000
v 10.000008 0.000000 -3.000000
vt 0.186505 0.250996
vt 0.186505 0.001992
vt 0.190240 0.001992
vt 0.190240 0.250996
vt 0.197635 0.250996
vt 0.197635 0.001992
vt 0.272336 0.001992
vt 0.272336 0.250996
vt 0.279256 0.250996
vt 0.279256 0.001992
vt 0.282991 0.001992
vt 0.282991 0.250996
vt 0.290386 0.250996
vt 0.290386 0.001992
vt 0.365088 0.001992
vt 0.365088 0.250996
vt 0.372008 0.076693
vt 0.372008 0.001992
vt 0.375743 0.001992
vt 0.375743 0.076693
vt 0.383138 0.076693
vt 0.383138 0.001992
vt 0.386873 0.001992
vt 0.386873 0.076693
vn 0.000000 0.000000 1.000000
vn 0.000000 0.000000 1.000000
vn 0.000000 0.000000 1.000000
vn 0.000000 0.000000 1.000000
vn 0.000000 1.000000 0.000000
vn 0.000000 1.000000 0.000000
vn 0.000000 1.000000 0.000000
vn 0.000000 1.000000 0.000000
vn 0.000000 0.000000 -1.000000
vn 0.000000 0.000000 -1.000000
vn 0.000000 0.000000 -1.000000
vn 0.000000 0.000000 -1.000000
vn 0.000000 -1.000000 0.000000
vn 0.000000 -1.000000 0.000000
vn 0.000000 -1.000000 0.000000
vn 0.000000 -1.000000 0.000000
vn 1.000000 0.000000 0.000000
vn 1.000000 0.000000 0.000000
vn 1.000000 0.000000 0.000000
vn 1.000000 0.000000 0.000000
vn -1.000000 0.000000 0.000000
vn -1.000000 0.000000 0.000000
vn -1.000000 0.000000 0.000000
vn -1.000000 0.000000 0.000000
s off
g polySurface949 polySurface694
f 1/1/1 2/2/2 4/3/3 3/4/4
f 3/5/5 4/6/6 6/7/7 5/8/8
f 5/9/9 6/10/10 8/11/11 7/12/12
f 7/13/13 8/14/14 2/15/15 1/16/16
f 2/17/17 8/18/18 6/19/19 4/20/20
f 7/21/21 1/22/22 3/23/23 5/24/24
